# xmcd
#
# Track frame offsets: 
#        150
#        11022
#        30465
#        46572
#        61982
#        81830
#        101120
#        118272
#        135625
#        152127
#        170557
#        189480
#        207875
#
# Disc length: 2979 seconds
#
# Revision: 4
# Processed by: cddbd v1.5.2PL0 Copyright (c) Steve Scherf et al.
# Submitted via: ExactAudioCopyFreeDBPlugin 1.0
#
DISCID=a90ba10d
DTITLE=Tlc - 3D
DYEAR=2002
DGENRE=R&B
TTITLE0=3D (Intro)
TTITLE1=Quickie
TTITLE2=Girl Talk
TTITLE3=Turntable
TTITLE4=In Your Arms Tonight
TTITLE5=Over Me
TTITLE6=Hands Up
TTITLE7=Damaged
TTITLE8=Dirty Dirty
TTITLE9=So So Dumb
TTITLE10=Good Love
TTITLE11=Hey Hey Hey Hey
TTITLE12=Give It To Me While It's Hot
EXTD=
EXTT0=
EXTT1=
EXTT2=
EXTT3=
EXTT4=
EXTT5=
EXTT6=
EXTT7=
EXTT8=
EXTT9=
EXTT10=
EXTT11=
EXTT12=
PLAYORDER=
